<svg xmlns="http://www.w3.org/2000/svg" viewBox="0 0 64 64">
  <defs>
    <linearGradient id="jobestBg" x1="0" y1="0" x2="1" y2="1">
      <stop offset="0%" stop-color="#2563eb" />
      <stop offset="100%" stop-color="#1e3a8a" />
    </linearGradient>
  </defs>
  <rect x="4" y="4" width="56" height="56" rx="14" fill="url(#jobestBg)" />
  <rect x="15" y="20" width="34" height="30" rx="7" fill="#ffffff" />
  <path d="M24 20c0-4.4 3.6-8 8-8s8 3.6 8 8h-4c0-2.2-1.8-4-4-4s-4 1.8-4 4z" fill="#ffffff" />
  <path d="M23 32h10.5c4 0 6.5 2 6.5 5.5S37.2 44 33.1 44H28v-4h4.7c2 0 3.3-.8 3.3-2.4s-1.3-2.5-3.3-2.5H27v9h-4z" fill="#1e40af" />
  <circle cx="46.5" cy="46.5" r="5.5" fill="#22c55e" />
  <path d="M44.1 46.4l1.6 1.6 3.2-3.2" fill="none" stroke="#fff" stroke-width="1.8" stroke-linecap="round" stroke-linejoin="round" />
</svg>
